<svg xmlns="http://www.w3.org/2000/svg" version="1.1" xmlns:xlink="http://www.w3.org/1999/xlink" viewBox="0 0 200 200"><rect width="200" height="200" fill="url('#gradient')"></rect><defs><linearGradient id="gradient" gradientTransform="rotate(0 0.5 0.5)"><stop offset="0%" stop-color="#ffffff"></stop><stop offset="100%" stop-color="#ffffff"></stop></linearGradient></defs><g><g fill="#ffb4ac" transform="matrix(4.603396603396604,0,0,4.603396603396604,6.896693161496145,132.71150621762882)" stroke="#c8512e" stroke-width="0.2"><path d="M13.12-7.47L13.12-6.82Q13.12-4.74 12.34-3.13Q11.57-1.53 10.15-0.67Q8.73 0.20 6.91 0.20Q5.10 0.20 3.69-0.64Q2.29-1.47 1.50-3.03Q0.71-4.58 0.67-6.59L0.67-6.59L0.67-7.39Q0.67-9.48 1.44-11.08Q2.21-12.68 3.64-13.54Q5.07-14.41 6.89-14.41L6.89-14.41Q8.70-14.41 10.12-13.55Q11.53-12.70 12.32-11.11Q13.11-9.52 13.12-7.47L13.12-7.47ZM9.63-6.76L9.63-7.41Q9.63-9.53 8.92-10.63Q8.21-11.73 6.89-11.73L6.89-11.73Q4.32-11.73 4.17-7.86L4.17-7.86L4.16-6.82Q4.16-4.73 4.85-3.60Q5.55-2.48 6.91-2.48L6.91-2.48Q8.21-2.48 8.92-3.58Q9.62-4.69 9.63-6.76L9.63-6.76ZM20.50-4.82L18.31-4.82L18.31 0L14.88 0L14.88-14.22L20.56-14.22Q22.19-14.22 23.44-13.62Q24.70-13.02 25.39-11.91Q26.07-10.80 26.07-9.39L26.07-9.39Q26.07-7.31 24.58-6.07Q23.10-4.82 20.50-4.82L20.50-4.82ZM18.31-11.57L18.31-7.47L20.56-7.47Q21.55-7.47 22.08-7.97Q22.60-8.47 22.60-9.38L22.60-9.38Q22.60-10.37 22.06-10.97Q21.52-11.56 20.60-11.57L20.60-11.57L18.31-11.57ZM39.78-14.22L39.78 0L36.37 0L31.33-8.85L31.33 0L27.90 0L27.90-14.22L31.33-14.22L36.36-5.37L36.36-14.22L39.78-14.22Z"></path></g></g></svg>